HIERARCHY
ROOT hip
{
  OFFSET 0 0 0
  CHANNELS 6 Xposition Yposition Zposition Zrotation Yrotation Xrotation
  JOINT abdomen
  {
    OFFSET 0 20.6881 -0.73152
    CHANNELS 3 Zrotation Xrotation Yrotation
    JOINT chest
    {
      OFFSET 0 11.7043 -0.48768
      CHANNELS 3 Zrotation Xrotation Yrotation
      JOINT neck
      {
        OFFSET 0 22.1894 -2.19456
        CHANNELS 3 Zrotation Xrotation Yrotation
        JOINT head
        {
          OFFSET -0.24384 7.07133 1.2192
          CHANNELS 3 Zrotation Xrotation Yrotation
          JOINT leftEye
          {
            OFFSET 4.14528 8.04674 8.04672
            CHANNELS 3 Zrotation Xrotation Yrotation
            End Site
            {
              OFFSET 1 0 0
            }
          }
          JOINT rightEye
          {
            OFFSET -3.6576 8.04674 8.04672
            CHANNELS 3 Zrotation Xrotation Yrotation
            End Site
            {
              OFFSET 1 0 0
            }
          }
        }
      }
      JOINT rCollar
      {
        OFFSET -2.68224 19.2634 -4.8768
        CHANNELS 3 Zrotation Xrotation Yrotation
        JOINT rShldr
        {
          OFFSET -8.77824 -1.95073 1.46304
          CHANNELS 3 Zrotation Xrotation Yrotation
          JOINT rForeArm
          {
            OFFSET -28.1742 -1.7115 0.48768
            CHANNELS 3 Zrotation Xrotation Yrotation
            JOINT rHand
            {
              OFFSET -22.5879 0.773209 7.07136
              CHANNELS 3 Zrotation Xrotation Yrotation
              JOINT rThumb1
              {
                OFFSET -1.2192 -0.487915 3.41376
                CHANNELS 3 Zrotation Xrotation Yrotation
                JOINT rThumb2
                {
                  OFFSET -3.37035 -0.52449 3.41376
                  CHANNELS 3 Zrotation Xrotation Yrotation
                  End Site
                  {
                    OFFSET -1.78271 -1.18214 1.43049
                  }
                }
              }
              JOINT rIndex1
              {
                OFFSET -7.75947 0.938293 5.60832
                CHANNELS 3 Zrotation Xrotation Yrotation
                JOINT rIndex2
                {
                  OFFSET -2.54057 -0.884171 1.56538
                  CHANNELS 3 Zrotation Xrotation Yrotation
                  End Site
                  {
                    OFFSET -1.62519 -0.234802 1.16502
                  }
                }
              }
              JOINT rMid1
              {
                OFFSET -8.24714 1.18213 3.41376
                CHANNELS 3 Zrotation Xrotation Yrotation
                JOINT rMid2
                {
                  OFFSET -3.10165 -0.590103 1.0647
                  CHANNELS 3 Zrotation Xrotation Yrotation
                  End Site
                  {
                    OFFSET -2.48547 -0.328903 0.83742
                  }
                }
              }
              JOINT rRing1
              {
                OFFSET -8.82822 0.546677 1.51678
                CHANNELS 3 Zrotation Xrotation Yrotation
                JOINT rRing2
                {
                  OFFSET -2.60934 -0.819778 -0.0198488
                  CHANNELS 3 Zrotation Xrotation Yrotation
                  End Site
                  {
                    OFFSET -2.33842 -0.294052 0.168128
                  }
                }
              }
              JOINT rPinky1
              {
                OFFSET -8.27202 -0.0477905 -0.4584
                CHANNELS 3 Zrotation Xrotation Yrotation
                JOINT rPinky2
                {
                  OFFSET -1.82734 -0.647385 -0.700984
                  CHANNELS 3 Zrotation Xrotation Yrotation
                  End Site
                  {
                    OFFSET -1.69225 -0.51767 -0.607171
                  }
                }
              }
            }
          }
        }
      }
      JOINT lCollar
      {
        OFFSET 2.68224 19.2634 -4.8768
        CHANNELS 3 Zrotation Xrotation Yrotation
        JOINT lShldr
        {
          OFFSET 8.77824 -1.95073 1.46304
          CHANNELS 3 Zrotation Xrotation Yrotation
          JOINT lForeArm
          {
            OFFSET 28.1742 -1.7115 0.48768
            CHANNELS 3 Zrotation Xrotation Yrotation
            JOINT lHand
            {
              OFFSET 22.5879 0.773209 7.07136
              CHANNELS 3 Zrotation Xrotation Yrotation
              JOINT lThumb1
              {
                OFFSET 1.2192 -0.487915 3.41376
                CHANNELS 3 Zrotation Xrotation Yrotation
                JOINT lThumb2
                {
                  OFFSET 3.37035 -0.52449 3.41376
                  CHANNELS 3 Zrotation Xrotation Yrotation
                  End Site
                  {
                    OFFSET 1.78271 -1.18214 1.43049
                  }
                }
              }
              JOINT lIndex1
              {
                OFFSET 7.75947 0.938293 5.60832
                CHANNELS 3 Zrotation Xrotation Yrotation
                JOINT lIndex2
                {
                  OFFSET 2.54057 -0.884171 1.56538
                  CHANNELS 3 Zrotation Xrotation Yrotation
                  End Site
                  {
                    OFFSET 1.62519 -0.234802 1.16502
                  }
                }
              }
              JOINT lMid1
              {
                OFFSET 8.24714 1.18213 3.41376
                CHANNELS 3 Zrotation Xrotation Yrotation
                JOINT lMid2
                {
                  OFFSET 3.10165 -0.590103 1.0647
                  CHANNELS 3 Zrotation Xrotation Yrotation
                  End Site
                  {
                    OFFSET 2.48547 -0.328903 0.83742
                  }
                }
              }
              JOINT lRing1
              {
                OFFSET 8.82822 0.546677 1.51678
                CHANNELS 3 Zrotation Xrotation Yrotation
                JOINT lRing2
                {
                  OFFSET 2.60934 -0.819778 -0.0198488
                  CHANNELS 3 Zrotation Xrotation Yrotation
                  End Site
                  {
                    OFFSET 2.33842 -0.294052 0.168128
                  }
                }
              }
              JOINT lPinky1
              {
                OFFSET 8.27202 -0.0477905 -0.4584
                CHANNELS 3 Zrotation Xrotation Yrotation
                JOINT lPinky2
                {
                  OFFSET 1.82734 -0.647385 -0.700984
                  CHANNELS 3 Zrotation Xrotation Yrotation
                  End Site
                  {
                    OFFSET 1.69225 -0.51767 -0.607171
                  }
                }
              }
            }
          }
        }
      }
    }
  }
  JOINT rButtock
  {
    OFFSET -8.77824 4.35084 1.2192
    CHANNELS 3 Zrotation Xrotation Yrotation
    JOINT rThigh
    {
      OFFSET 0 -1.70687 -2.19456
      CHANNELS 3 Zrotation Xrotation Yrotation
      JOINT rShin
      {
        OFFSET 0 -36.8199 0.73152
        CHANNELS 3 Zrotation Xrotation Yrotation
        JOINT rFoot
        {
          OFFSET 0.73152 -45.1104 -5.12064
          CHANNELS 3 Zrotation Xrotation Yrotation
          End Site
          {
            OFFSET -1.1221 -3.69964 12.103
          }
        }
      }
    }
  }
  JOINT lButtock
  {
    OFFSET 8.77824 4.35084 1.2192
    CHANNELS 3 Zrotation Xrotation Yrotation
    JOINT lThigh
    {
      OFFSET 0 -1.70687 -2.19456
      CHANNELS 3 Zrotation Xrotation Yrotation
      JOINT lShin
      {
        OFFSET 0 -36.8199 0.73152
        CHANNELS 3 Zrotation Xrotation Yrotation
        JOINT lFoot
        {
          OFFSET -0.73152 -45.1104 -5.12064
          CHANNELS 3 Zrotation Xrotation Yrotation
          End Site
          {
            OFFSET 1.1221 -3.69964 12.103
          }
        }
      }
    }
  }
}
MOTION
Frames:	4
Frame Time:	0.00833333
61.708 85.2022 -92.2281 0.0 0.0 0.0 0.602242 -0.00285567 0.0171684 0.166047 -0.00431785 0.0287697 1.65696e-14 7.95139e-16 -9.31803e-17 4.96589e-14 9.54166e-15 -2.65564e-16 -0.0 0.0 0.0 -0.0 0.0 0.0 8.4472e-15 -1.65007e-17 9.93923e-17 1.74961e-13 -4.22417e-16 5.96354e-16 2.99086e-12 -9.05265e-13 -5.40694e-14 3.41911e-11 8.29802e-13 -1.24042e-13 8.06564e-11 -1.62094e-13 -3.72125e-13 1.39275e-10 -2.73528e-13 -6.43267e-13 8.06589e-11 -1.62208e-13 -3.78486e-13 7.73091 5.47488 0.417314 8.06561e-11 -1.62308e-13 -3.65764e-13 2.90554 0.965183 0.102902 8.06622e-11 -1.62407e-13 -3.68944e-13 10.2786 0.731801 0.0259123 8.06422e-11 -1.59028e-13 -3.62583e-13 2.22167 -0.733487 -0.20892 8.25125e-15 -1.55301e-17 -1.98785e-16 1.72625e-13 -3.10601e-17 -9.93923e-16 2.98619e-12 8.83995e-13 -3.49861e-14 3.42018e-11 -9.48849e-13 -1.145e-13 8.06753e-11 -1.43288e-13 -3.65764e-13 1.39334e-10 -2.44903e-13 -6.37701e-13 8.06712e-11 -1.43523e-13 -3.59403e-13 -7.73091 5.47488 -0.417314 8.06748e-11 -1.43224e-13 -3.65764e-13 -2.90554 0.965183 -0.102902 8.06712e-11 -1.43324e-13 -3.68149e-13 -10.2786 0.731801 -0.0259123 8.06859e-11 -1.4074e-13 -3.81667e-13 -2.22167 -0.733487 0.20892 -2.03217e-16 0.0 -3.88251e-19 0.985443 -4.60218 -0.0812411 -0.00202236 2.78417 -0.00803853 -0.53262 1.81803 0.0982256 2.03217e-16 0.0 3.88251e-19 -0.0701758 -2.29252 0.0218609 0.0084668 -1.39936 0.072335 0.52619 3.69178 -0.136088
64.778 84.1297 -94.4616 -1.5618 56.2211 0.6038 -0.704463 -0.486056 -0.492982 0.836783 0.655524 -0.120501 -3.64497 4.43732 -4.69014 6.74898 -0.3485 -9.12312 -0.0 0.0 0.0 -0.0 0.0 0.0 -8.1749e-15 5.01929e-14 1.53299e-13 23.1346 4.56556 -0.828617 -4.4879 -2.09524 6.9481 0.00103686 0.75969 0.106742 -7.08049e-10 -1.97682e-09 6.34164e-10 -1.22343e-09 -3.42805e-09 1.10169e-09 -7.08046e-10 -1.97682e-09 6.34157e-10 7.73091 5.47488 0.417314 -7.0805e-10 -1.97682e-09 6.34168e-10 2.90554 0.965183 0.102902 -7.08042e-10 -1.97682e-09 6.34167e-10 10.2786 0.731801 0.0259123 -7.08061e-10 -1.97682e-09 6.34173e-10 2.22167 -0.733487 -0.20892 -8.33525e-15 5.01917e-14 1.53043e-13 -22.6429 3.76018 0.857063 3.1275 -1.25657 -5.049 -0.016338 2.83593 -0.396802 -6.00668e-10 -8.92393e-10 3.68321e-10 -1.0343e-09 -1.54563e-09 6.43886e-10 -6.00673e-10 -8.92393e-10 3.6833e-10 -7.73091 5.47488 -0.417314 -6.0067e-10 -8.92394e-10 3.68323e-10 -2.90554 0.965183 -0.102902 -6.00675e-10 -8.92394e-10 3.68322e-10 -10.2786 0.731801 -0.0259123 -6.00659e-10 -8.92392e-10 3.68311e-10 -2.22167 -0.733487 0.20892 -2.03217e-16 0.0 -3.88251e-19 -0.42975 -7.63366 4.22513 0.00113297 8.6853 0.0796283 -0.6569 -0.962863 -2.00616 2.03217e-16 0.0 3.88251e-19 0.812708 -2.60255 -2.07252 -0.0113822 3.94436 -0.0596209 1.04721 -2.72616 4.49557
64.7876 84.136 -94.4529 -1.6041 56.2793 0.515 -2.09268 -0.995471 -1.02776 1.54577 1.352 -0.276953 -6.69624 9.03836 -9.74218 13.7687 -0.708487 -18.7693 -0.0 0.0 0.0 -0.0 0.0 0.0 -2.68267e-14 1.07599e-13 3.42379e-13 47.7512 9.40034 -1.73292 -8.69606 -4.21626 14.3416 -0.00101224 1.53293 0.215458 -1.66187e-09 -4.34237e-09 1.38685e-09 -2.87129e-09 -7.53036e-09 2.40946e-09 -1.66186e-09 -4.34237e-09 1.38684e-09 7.73091 5.47488 0.417314 -1.66187e-09 -4.34237e-09 1.38685e-09 2.90554 0.965183 0.102902 -1.66186e-09 -4.34237e-09 1.38685e-09 10.2786 0.731801 0.0259123 -1.66188e-09 -4.34237e-09 1.38686e-09 2.22167 -0.733487 -0.20892 -2.69494e-14 1.07596e-13 3.42167e-13 -46.6991 7.72706 1.77816 6.18947 -2.54976 -10.3871 0.00930485 5.83398 -0.819595 -1.42638e-09 -1.96352e-09 8.07182e-10 -2.45667e-09 -3.40082e-09 1.41126e-09 -1.42638e-09 -1.96352e-09 8.07194e-10 -7.73091 5.47488 -0.417314 -1.42638e-09 -1.96353e-09 8.07186e-10 -2.90554 0.965183 -0.102902 -1.42638e-09 -1.96353e-09 8.07185e-10 -10.2786 0.731801 -0.0259123 -1.42637e-09 -1.96353e-09 8.07177e-10 -2.22167 -0.733487 0.20892 -2.03217e-16 0.0 -3.88251e-19 -1.42098 -10.7544 8.86036 -0.0158915 14.9228 0.176352 -1.01045 -3.89305 -4.23917 2.03217e-16 0.0 3.88251e-19 1.72381 -2.92639 -4.2859 -0.00539596 9.59518 -0.201638 2.7333 -9.40072 9.50761
64.7961 84.1373 -94.4462 -1.6721 56.292 0.4622 -3.34369 -1.452 -1.51371 2.18857 1.97516 -0.419268 -8.73203 12.9511 -14.4021 19.928 -0.940356 -27.3728 -0.0 0.0 0.0 -0.0 0.0 0.0 -4.14191e-14 1.50612e-13 4.59698e-13 69.8097 13.6851 -2.55041 -11.9697 -5.91677 20.9471 -0.00538695 2.27904 0.320453 -2.28546e-09 -5.93015e-09 1.90324e-09 -3.94884e-09 -1.02836e-08 3.30636e-09 -2.28545e-09 -5.93014e-09 1.90323e-09 7.73091 5.47488 0.417314 -2.28546e-09 -5.93014e-09 1.90324e-09 2.90554 0.965183 0.102902 -2.28545e-09 -5.93014e-09 1.90324e-09 10.2786 0.731801 0.0259123 -2.28547e-09 -5.93014e-09 1.90324e-09 2.22167 -0.733487 -0.20892 -4.15082e-14 1.50606e-13 4.59526e-13 -68.2717 11.2703 2.61614 8.72558 -3.65279 -15.1749 0.0699342 8.50615 -1.20217 -1.96336e-09 -2.67689e-09 1.1057e-09 -3.38156e-09 -4.63641e-09 1.93293e-09 -1.96336e-09 -2.67689e-09 1.10571e-09 -7.73091 5.47488 -0.417314 -1.96336e-09 -2.6769e-09 1.1057e-09 -2.90554 0.965183 -0.102902 -1.96337e-09 -2.6769e-09 1.1057e-09 -10.2786 0.731801 -0.0259123 -1.96335e-09 -2.6769e-09 1.1057e-09 -2.22167 -0.733487 0.20892 -2.03217e-16 0.0 -3.88251e-19 -1.87281 -13.414 13.0879 -0.0499346 20.4874 0.269233 -1.51998 -6.48792 -6.2542 2.03217e-16 0.0 3.88251e-19 2.51064 -3.20847 -6.26469 0.0244925 14.6316 -0.333894 5.25564 -15.1302 14.2468
